<svg id="Layer_1" data-name="Layer 1" xmlns="http://www.w3.org/2000/svg" viewBox="0 0 575.17 223.4"><defs><style>.cls-1{fill:#132452;}.cls-2{fill:#fff;}.cls-3{fill:#fa8c41;}</style></defs><rect class="cls-1" x="-6.09" y="-6.15" width="587.35" height="235.7"/><path class="cls-2" d="M161.23,99.29v29.32L173.07,131v42H61.55V143.81l23.71-9.11v17.39h8.39c.27-18.14-.37-36.29,0-54.75l20,7.17v37.56H120V126.58l12.09,3v25.47h6.24V84.16Z"/><polygon class="cls-3" points="172.57 76.49 172.57 94.33 119.44 59.97 62.05 95.39 62.05 74.88 118.31 41.23 119.07 40.77 144.97 57.76 172.57 76.49"/><polygon class="cls-3" points="62.05 95.38 45.89 104.01 45.89 172.98 61.55 172.98 62.05 95.38"/><polygon class="cls-3" points="172.58 94.09 188.74 104.01 188.74 172.98 173.07 172.98 172.58 94.09"/><rect class="cls-3" x="61.4" y="62.42" width="1.3" height="126.02"/><rect class="cls-3" x="171.93" y="62.42" width="1.3" height="126.02"/><rect class="cls-2" x="37.02" y="172.33" width="161.63" height="1.3"/><polygon class="cls-3" points="189.24 87.81 189.24 89.38 172.57 78.06 118.31 41.23 110.7 36.06 111.42 34.99 144.97 57.76 172.57 76.49 189.24 87.81"/><polygon class="cls-3" points="45.79 86.53 127.36 36.07 126.67 34.97 45.79 85.01 45.79 86.53"/></svg>