<svg id="Layer_1" data-name="Layer 1" xmlns="http://www.w3.org/2000/svg" viewBox="0 0 219.05 223.4"><defs><style>.cls-1{fill:#132452;}.cls-2{fill:#fff;}.cls-3{fill:#fa8c41;}</style></defs><rect class="cls-1" x="-1.17" y="-1" width="221.4" height="225.4"/><path class="cls-2" d="M152.92,99.29v29.32L164.76,131v42H53.24V143.81l23.7-9.11v17.39h8.39c.27-18.14-.36-36.29,0-54.75l20,7.17v37.56h6.34V126.58l12.08,3v25.47h6.25V84.16Z"/><polygon class="cls-3" points="164.26 76.49 164.26 94.33 111.13 59.97 53.73 95.39 53.73 74.88 110 41.23 110.76 40.77 136.66 57.76 164.26 76.49"/><polygon class="cls-3" points="53.73 95.38 37.57 104.01 37.57 172.98 53.24 172.98 53.73 95.38"/><polygon class="cls-3" points="164.26 94.09 180.42 104.01 180.42 172.98 164.76 172.98 164.26 94.09"/><rect class="cls-3" x="53.08" y="62.42" width="1.3" height="126.02"/><rect class="cls-3" x="163.61" y="62.42" width="1.3" height="126.02"/><rect class="cls-2" x="28.71" y="172.33" width="161.63" height="1.3"/><polygon class="cls-3" points="180.93 87.81 180.93 89.38 164.26 78.06 110 41.23 102.38 36.06 103.11 34.99 136.66 57.76 164.26 76.49 180.93 87.81"/><polygon class="cls-3" points="37.47 86.53 119.04 36.07 118.36 34.97 37.47 85.01 37.47 86.53"/></svg>