<svg id="Layer_1" data-name="Layer 1" xmlns="http://www.w3.org/2000/svg" viewBox="0 0 575.17 223.4"><defs><style>.cls-1{fill:#132452;}.cls-2{fill:#fff;}.cls-3{fill:#fa8c41;}</style></defs><rect class="cls-1" x="-6.09" y="-6.15" width="587.35" height="235.7"/><path class="cls-2" d="M161.23,99.29v29.32L173.07,131v42H61.55V143.81l23.71-9.11v17.39h8.39c.27-18.14-.37-36.29,0-54.75l20,7.17v37.56H120V126.58l12.09,3v25.47h6.24V84.16Z"/><polygon class="cls-3" points="172.57 76.49 172.57 94.33 119.44 59.97 62.05 95.39 62.05 74.88 118.31 41.23 119.07 40.77 144.97 57.76 172.57 76.49"/><polygon class="cls-3" points="62.05 95.38 45.89 104.01 45.89 172.98 61.55 172.98 62.05 95.38"/><polygon class="cls-3" points="172.58 94.09 188.74 104.01 188.74 172.98 173.07 172.98 172.58 94.09"/><rect class="cls-3" x="61.4" y="62.42" width="1.3" height="126.02"/><rect class="cls-3" x="171.93" y="62.42" width="1.3" height="126.02"/><rect class="cls-2" x="37.02" y="172.33" width="161.63" height="1.3"/><polygon class="cls-3" points="189.24 87.81 189.24 89.38 172.57 78.06 118.31 41.23 110.7 36.06 111.42 34.99 144.97 57.76 172.57 76.49 189.24 87.81"/><polygon class="cls-3" points="45.79 86.53 127.36 36.07 126.67 34.97 45.79 85.01 45.79 86.53"/><path class="cls-2" d="M214.9,130a8.26,8.26,0,0,1-3.56-2.77A7.36,7.36,0,0,1,210,123h5.78a3.72,3.72,0,0,0,1.18,2.62,4.11,4.11,0,0,0,2.91,1,4.44,4.44,0,0,0,3-.91,2.93,2.93,0,0,0,1.08-2.37,2.72,2.72,0,0,0-.73-2,5.16,5.16,0,0,0-1.83-1.22,31.45,31.45,0,0,0-3-1,32.12,32.12,0,0,1-4.25-1.52,7.49,7.49,0,0,1-2.82-2.27,6.52,6.52,0,0,1-1.17-4.07,7.31,7.31,0,0,1,1.19-4.16,7.68,7.68,0,0,1,3.35-2.72,12.23,12.23,0,0,1,4.94-.94,10.7,10.7,0,0,1,6.76,2,7.52,7.52,0,0,1,2.87,5.65h-5.93a3.1,3.1,0,0,0-1.18-2.29,4.39,4.39,0,0,0-2.91-.91,3.74,3.74,0,0,0-2.52.81,2.92,2.92,0,0,0-.95,2.35,2.4,2.4,0,0,0,.72,1.79,5.34,5.34,0,0,0,1.77,1.16c.7.29,1.7.63,3,1a30.06,30.06,0,0,1,4.27,1.54,7.52,7.52,0,0,1,2.85,2.31,6.42,6.42,0,0,1,1.2,4.05,7.65,7.65,0,0,1-1.12,4,7.94,7.94,0,0,1-3.28,2.95A11.15,11.15,0,0,1,220,131,12.7,12.7,0,0,1,214.9,130Z"/><path class="cls-2" d="M239.7,129.21a13.22,13.22,0,0,1-5-4.92,14.51,14.51,0,0,1,0-14.18,13.2,13.2,0,0,1,5-4.91,14.51,14.51,0,0,1,13.89,0,13.16,13.16,0,0,1,5,4.91,14.65,14.65,0,0,1,0,14.18,13.17,13.17,0,0,1-5,4.92,14.47,14.47,0,0,1-13.87,0Zm11.21-4.15a7.58,7.58,0,0,0,2.89-3.14,11.28,11.28,0,0,0,0-9.46,7.54,7.54,0,0,0-2.89-3.1,9,9,0,0,0-8.57,0,7.39,7.39,0,0,0-2.91,3.1,11.28,11.28,0,0,0,0,9.46,7.44,7.44,0,0,0,2.91,3.14,8.9,8.9,0,0,0,8.57,0Z"/><path class="cls-2" d="M269.71,103.82v16.64a5.67,5.67,0,0,0,1.43,4.18,5.37,5.37,0,0,0,4,1.44,5.44,5.44,0,0,0,4.05-1.44,5.71,5.71,0,0,0,1.42-4.18V103.82h5.44v16.6a10.71,10.71,0,0,1-1.49,5.8,9.35,9.35,0,0,1-4,3.56,12.52,12.52,0,0,1-5.52,1.2,12.23,12.23,0,0,1-5.46-1.2,9,9,0,0,1-3.87-3.56,11.06,11.06,0,0,1-1.42-5.8v-16.6Z"/><path class="cls-2" d="M309.55,103.82v4.35h-7.17v22.54H297V108.17h-7.17v-4.35Z"/><path class="cls-2" d="M335.78,103.82v26.89h-5.39V119.26H318.87v11.45h-5.39V103.82h5.39v11.05h11.52V103.82Z"/><path class="cls-2" d="M346.49,108.17v6.74h9.06v4.28h-9.06v7.13H356.7v4.39H341.1V103.78h15.6v4.39Z"/><path class="cls-2" d="M375.47,130.71l-5.94-10.48H367v10.48H361.6V103.82h10.09a11.85,11.85,0,0,1,5.32,1.09,7.7,7.7,0,0,1,3.29,3,8.13,8.13,0,0,1,1.1,4.18,7.75,7.75,0,0,1-6.13,7.74l6.44,10.91ZM367,116.18h4.51a4.48,4.48,0,0,0,3.27-1.06,3.93,3.93,0,0,0,1.08-2.94,3.75,3.75,0,0,0-1.08-2.87,4.61,4.61,0,0,0-3.27-1H367Z"/><path class="cls-2" d="M409.29,130.71H403.9l-12.21-18.46v18.46h-5.4V103.78h5.4l12.21,18.49V103.78h5.39Z"/><path class="cls-2" d="M426.09,110.31a12.72,12.72,0,0,1,4.89-4.9,14,14,0,0,1,6.95-1.75,13.68,13.68,0,0,1,7.9,2.31,12.11,12.11,0,0,1,4.74,6.4h-6.2a6.45,6.45,0,0,0-2.6-2.89,7.67,7.67,0,0,0-3.88-1,8,8,0,0,0-4.18,1.09,7.53,7.53,0,0,0-2.85,3.11,11.29,11.29,0,0,0,0,9.38,7.44,7.44,0,0,0,2.85,3.12,8,8,0,0,0,4.18,1.1,7.49,7.49,0,0,0,3.88-1,6.55,6.55,0,0,0,2.6-2.91h6.2a12,12,0,0,1-4.72,6.42,14.76,14.76,0,0,1-14.87.54,12.81,12.81,0,0,1-4.89-4.88,14.88,14.88,0,0,1,0-14.19Z"/><path class="cls-2" d="M460.59,104V130.9h-5.4V104Z"/><path class="cls-2" d="M484.2,104v4.35H477V130.9h-5.4V108.36h-7.16V104Z"/><path class="cls-2" d="M493.53,104V130.9h-5.4V104Z"/><path class="cls-2" d="M504.24,108.36v6.74h9v4.28h-9v7.13h10.21v4.39H498.84V104h15.61v4.39Z"/><path class="cls-2" d="M523.56,130.21a8.35,8.35,0,0,1-3.56-2.78,7.19,7.19,0,0,1-1.35-4.27h5.78a3.71,3.71,0,0,0,1.17,2.62,4.19,4.19,0,0,0,2.91,1,4.45,4.45,0,0,0,3-.91,2.93,2.93,0,0,0,1.08-2.37,2.73,2.73,0,0,0-.74-2,5,5,0,0,0-1.83-1.21,29,29,0,0,0-3-1,31.81,31.81,0,0,1-4.26-1.52,7.46,7.46,0,0,1-2.81-2.27,6.52,6.52,0,0,1-1.18-4.07,7.24,7.24,0,0,1,1.2-4.16,7.55,7.55,0,0,1,3.35-2.71,12.18,12.18,0,0,1,4.93-.95,10.67,10.67,0,0,1,6.76,2,7.46,7.46,0,0,1,2.87,5.64H531.9a3.08,3.08,0,0,0-1.17-2.29,4.43,4.43,0,0,0-2.91-.91,3.75,3.75,0,0,0-2.53.81,2.92,2.92,0,0,0-.94,2.35,2.43,2.43,0,0,0,.71,1.79,5.55,5.55,0,0,0,1.77,1.16c.71.29,1.71.63,3,1a31.56,31.56,0,0,1,4.28,1.54,7.77,7.77,0,0,1,2.85,2.31,6.48,6.48,0,0,1,1.19,4.05,7.61,7.61,0,0,1-1.11,4,7.87,7.87,0,0,1-3.28,2.95,11.21,11.21,0,0,1-5.12,1.1A12.8,12.8,0,0,1,523.56,130.21Z"/><path class="cls-2" d="M211.17,150.66a12.76,12.76,0,0,1,4.89-4.89A13.89,13.89,0,0,1,223,144a13.61,13.61,0,0,1,7.9,2.32,12.09,12.09,0,0,1,4.74,6.39h-6.2a6.44,6.44,0,0,0-2.6-2.89,7.66,7.66,0,0,0-3.87-1,7.88,7.88,0,0,0-4.18,1.1,7.47,7.47,0,0,0-2.86,3.1,11.29,11.29,0,0,0,0,9.38,7.46,7.46,0,0,0,2.86,3.12,8,8,0,0,0,4.18,1.1,7.48,7.48,0,0,0,3.87-1,6.52,6.52,0,0,0,2.6-2.9h6.2a12,12,0,0,1-4.72,6.41,13.72,13.72,0,0,1-7.92,2.29,13.88,13.88,0,0,1-6.95-1.75,12.78,12.78,0,0,1-4.89-4.87,15,15,0,0,1,0-14.2Z"/><path class="cls-2" d="M245.82,169.75a13.34,13.34,0,0,1-5-4.91,14.58,14.58,0,0,1,0-14.18,13.34,13.34,0,0,1,5-4.91,14.44,14.44,0,0,1,13.89,0,13.16,13.16,0,0,1,5,4.91,14.65,14.65,0,0,1,0,14.18,13.07,13.07,0,0,1-5,4.91,14.47,14.47,0,0,1-13.87,0ZM257,165.61a7.46,7.46,0,0,0,2.89-3.14,10.22,10.22,0,0,0,1-4.74,10.1,10.1,0,0,0-1-4.72,7.35,7.35,0,0,0-2.89-3.1,8.29,8.29,0,0,0-4.27-1.08,8.45,8.45,0,0,0-4.3,1.08,7.46,7.46,0,0,0-2.91,3.1,10.23,10.23,0,0,0-1,4.72,10.34,10.34,0,0,0,1,4.74,7.56,7.56,0,0,0,2.91,3.14,8.36,8.36,0,0,0,4.3,1.1A8.2,8.2,0,0,0,257,165.61Z"/><path class="cls-2" d="M293.52,171.25h-5.39L275.91,152.8v18.45h-5.39V144.32h5.39l12.22,18.49V144.32h5.39Z"/><path class="cls-2" d="M303.05,170.56a8.28,8.28,0,0,1-3.56-2.78,7.33,7.33,0,0,1-1.35-4.27h5.78a3.74,3.74,0,0,0,1.18,2.62,4.15,4.15,0,0,0,2.91,1,4.49,4.49,0,0,0,3-.9,3,3,0,0,0,1.08-2.37,2.74,2.74,0,0,0-.73-2,5.13,5.13,0,0,0-1.83-1.21,28.86,28.86,0,0,0-3-1,33.46,33.46,0,0,1-4.25-1.53,7.4,7.4,0,0,1-2.82-2.27,6.49,6.49,0,0,1-1.17-4.06,7.34,7.34,0,0,1,1.19-4.17,7.63,7.63,0,0,1,3.36-2.71,12.14,12.14,0,0,1,4.93-.95,10.71,10.71,0,0,1,6.76,2,7.51,7.51,0,0,1,2.87,5.64H311.4a3.12,3.12,0,0,0-1.18-2.29,4.44,4.44,0,0,0-2.91-.91,3.74,3.74,0,0,0-2.52.81,2.94,2.94,0,0,0-1,2.35,2.4,2.4,0,0,0,.72,1.79,5.19,5.19,0,0,0,1.77,1.16,29.29,29.29,0,0,0,3,1,32.77,32.77,0,0,1,4.27,1.54,7.71,7.71,0,0,1,2.85,2.31,6.42,6.42,0,0,1,1.2,4.05,7.68,7.68,0,0,1-1.12,4,7.91,7.91,0,0,1-3.28,2.94,11,11,0,0,1-5.12,1.1A12.87,12.87,0,0,1,303.05,170.56Z"/><path class="cls-2" d="M340.6,144.36v4.35h-7.17v22.54H328V148.71h-7.17v-4.35Z"/><path class="cls-2" d="M358.4,171.25l-5.93-10.48h-2.55v10.48h-5.39V144.36h10.09a11.82,11.82,0,0,1,5.32,1.1,7.64,7.64,0,0,1,3.29,3,8.34,8.34,0,0,1-.44,9,7.89,7.89,0,0,1-4.58,2.95l6.43,10.9Zm-8.48-14.52h4.51a4.55,4.55,0,0,0,3.28-1.06,4,4,0,0,0,1.07-2.95,3.79,3.79,0,0,0-1.07-2.87,4.64,4.64,0,0,0-3.28-1h-4.51Z"/><path class="cls-2" d="M374.54,144.36V161a5.69,5.69,0,0,0,1.43,4.18,5.34,5.34,0,0,0,4,1.45,5.41,5.41,0,0,0,4-1.45,5.69,5.69,0,0,0,1.43-4.18V144.36h5.43V161a10.7,10.7,0,0,1-1.49,5.79,9.41,9.41,0,0,1-4,3.57,12.7,12.7,0,0,1-5.53,1.19,12.31,12.31,0,0,1-5.45-1.19,9.09,9.09,0,0,1-3.88-3.57,11,11,0,0,1-1.42-5.79V144.36Z"/><path class="cls-2" d="M396.56,150.66a12.76,12.76,0,0,1,4.89-4.89,13.9,13.9,0,0,1,7-1.76,13.64,13.64,0,0,1,7.9,2.32,12.09,12.09,0,0,1,4.74,6.39h-6.21a6.44,6.44,0,0,0-2.6-2.89,7.66,7.66,0,0,0-3.87-1,7.88,7.88,0,0,0-4.18,1.1,7.44,7.44,0,0,0-2.85,3.1,11.29,11.29,0,0,0,0,9.38,7.44,7.44,0,0,0,2.85,3.12,8,8,0,0,0,4.18,1.1,7.48,7.48,0,0,0,3.87-1,6.52,6.52,0,0,0,2.6-2.9h6.21a12,12,0,0,1-4.73,6.41,13.69,13.69,0,0,1-7.91,2.29,13.89,13.89,0,0,1-7-1.75,12.78,12.78,0,0,1-4.89-4.87,15,15,0,0,1,0-14.2Z"/><path class="cls-2" d="M444,144.36v4.35H436.8v22.54h-5.39V148.71h-7.17v-4.35Z"/><path class="cls-2" d="M453.29,144.36v26.89H447.9V144.36Z"/><path class="cls-2" d="M464.16,169.75a13.2,13.2,0,0,1-5-4.91,14.51,14.51,0,0,1,0-14.18,13.2,13.2,0,0,1,5-4.91,14.44,14.44,0,0,1,13.89,0,13.06,13.06,0,0,1,5,4.91,14.58,14.58,0,0,1,0,14.18,13,13,0,0,1-5,4.91,14.47,14.47,0,0,1-13.87,0Zm11.21-4.14a7.58,7.58,0,0,0,2.89-3.14,10.34,10.34,0,0,0,1-4.74,10.23,10.23,0,0,0-1-4.72,7.48,7.48,0,0,0-2.89-3.1,9,9,0,0,0-8.57,0,7.33,7.33,0,0,0-2.91,3.1,10.1,10.1,0,0,0-1,4.72,10.22,10.22,0,0,0,1,4.74,7.44,7.44,0,0,0,2.91,3.14,8.9,8.9,0,0,0,8.57,0Z"/><path class="cls-2" d="M511.85,171.25h-5.39L494.25,152.8v18.45h-5.4V144.32h5.4l12.21,18.49V144.32h5.39Z"/></svg>